<?xml version="1.0" encoding="utf-8"?>
<!-- Generator: Adobe Illustrator 23.0.1, SVG Export Plug-In . SVG Version: 6.00 Build 0)  -->
<svg version="1.1" id="Layer_1" xmlns="http://www.w3.org/2000/svg" xmlns:xlink="http://www.w3.org/1999/xlink" x="0px" y="0px"
	 viewBox="0 0 1225 150" style="enable-background:new 0 0 1225 150;" xml:space="preserve">
<style type="text/css">
	.st0{fill:#FFFFFF;}
</style>
<g>
	<path class="st0" d="M267.87,57.06c-5.23,0-8.65,1.91-8.65,5.48c0,11.8,31.25,5.4,31.17,26.26c0,10.88-9.47,17.2-22.27,17.2
		c-9.31,0-18.37-3.74-24.6-9.31l4.66-9.39c5.98,5.32,13.88,8.56,20.11,8.56c6.24,0,9.97-2.33,9.97-6.4
		c0-12.13-31.25-5.23-31.25-25.93c0-10.14,8.73-16.62,21.77-16.62c7.73,0,15.45,2.49,21.03,6.16l-4.49,9.64
		C279.09,58.96,272.35,57.06,267.87,57.06z"/>
	<path class="st0" d="M317.81,70.27c-7.15,0-12.13,5.32-12.13,13.13c0,7.98,4.99,13.29,12.13,13.29c5.15,0,9.31-1.75,11.97-5.23
		l6.73,5.56c-3.91,5.65-10.55,8.98-19.28,8.98c-13.29,0-22.44-9.14-22.44-22.52c0-13.55,9.23-22.68,22.6-22.68
		c8.14,0,14.63,2.99,18.62,8.14l-6.57,6.24C326.62,72.1,322.71,70.27,317.81,70.27z"/>
	<path class="st0" d="M385.29,83.31c0,13.55-9.47,22.68-23.36,22.68c-14.05,0-23.52-9.14-23.52-22.68
		c0-13.47,9.47-22.52,23.52-22.52C375.82,60.79,385.29,69.86,385.29,83.31z M349.31,83.49c0,7.98,5.15,13.47,12.63,13.47
		c7.31,0,12.46-5.48,12.46-13.47c0-7.97-5.15-13.47-12.46-13.47C354.46,70.02,349.31,75.5,349.31,83.49z"/>
	<path class="st0" d="M419.03,102.85c-3.4,2.08-7.23,3.24-11.14,3.24c-7.23,0-13.04-4.16-13.04-13.29V70.85h-6.24l-0.08-7.89h6.32
		V50.74h10.72v12.22h12.71v7.89h-12.71v20.03c0,4.24,1.75,5.65,4.65,5.65c1.83,0,3.91-0.66,6.32-1.83L419.03,102.85z"/>
	<path class="st0" d="M451.86,102.85c-3.4,2.08-7.23,3.24-11.14,3.24c-7.23,0-13.04-4.16-13.04-13.29V70.85h-6.24l-0.08-7.89h6.32
		V50.74h10.72v12.22h12.71v7.89H438.4v20.03c0,4.24,1.75,5.65,4.65,5.65c1.83,0,3.91-0.66,6.32-1.83L451.86,102.85z"/>
	<path class="st0" d="M469.89,48.41c0,3.49-2.41,5.98-5.81,5.98c-3.4,0-5.81-2.49-5.81-5.98c0-3.49,2.41-5.98,5.81-5.98
		C467.48,42.43,469.89,44.93,469.89,48.41z M469.48,61.13v44.46h-10.8V61.13H469.48z"/>
	<path class="st0" d="M494.49,69.11c-3.49,0-5.98,1.16-5.98,3.91c0,7.48,23.52,3.57,23.52,19.53c0,9.06-8.06,13.47-17.53,13.47
		c-6.73,0-13.72-2.16-18.37-6.24l3.74-7.56c4.08,3.49,10.22,5.48,15.04,5.48c3.74,0,6.57-1.25,6.57-4.16
		c0-8.22-23.19-3.74-23.11-19.53c0-9.14,7.81-13.38,16.79-13.38c5.81,0,11.89,1.75,16.29,4.74l-3.91,7.81
		C503.22,70.6,498.32,69.11,494.49,69.11z"/>
	<path class="st0" d="M563.3,77.83v27.75h-10.89v-24.6c0-6.24-3.74-10.05-9.89-10.05c-7.31,0.08-11.72,5.48-11.72,12.8v21.86H520
		V43.93h10.8v25.68c3.15-6.07,8.73-8.81,16.04-8.9C557.07,60.71,563.3,67.28,563.3,77.83z"/>
	<path class="st0" d="M608.59,47.42v48.12h25.09v10.05h-36.23V47.42H608.59z"/>
	<path class="st0" d="M680.15,87.14h-32.83c1.42,6.32,6.24,10.14,12.71,10.14c4.57,0,8.81-1.75,11.97-4.99l5.81,6.07
		c-4.41,4.82-10.89,7.64-18.7,7.64c-13.8,0-22.85-9.14-22.85-22.52c0-13.55,9.31-22.68,22.6-22.68
		C674.5,60.79,681.22,71.02,680.15,87.14z M670.34,79.91c-0.25-6.57-4.65-10.72-11.39-10.72c-6.4,0-10.89,4.16-11.88,10.72
		L670.34,79.91L670.34,79.91z"/>
	<path class="st0" d="M728.51,61.13v40.23c0,12.71-9.23,20.78-23.27,20.78c-7.15,0-13.55-2.33-18.78-5.9l4.32-7.81
		c4.08,2.99,8.56,4.65,13.88,4.65c7.98,0,13.04-4.41,13.04-11.47v-5.23c-2.99,4.49-7.81,6.98-14.13,6.98
		c-11.8,0-19.78-8.65-19.78-21.44c0-12.55,7.89-21.11,19.45-21.11c6.4-0.08,11.39,2.49,14.46,6.98v-6.65L728.51,61.13L728.51,61.13z
		 M717.71,82.16c0-7.48-4.82-12.71-11.8-12.71s-11.8,5.32-11.88,12.71c0.08,7.48,4.82,12.71,11.88,12.71
		C712.89,94.87,717.71,89.63,717.71,82.16z"/>
	<path class="st0" d="M765.82,105.59v-5.4c-3.07,3.91-8.06,5.9-14.38,5.9c-9.56,0-15.54-5.9-15.54-13.8
		c0-8.22,6.07-13.29,16.87-13.39h12.96v-1.16c0-5.15-3.4-8.22-10.05-8.22c-4.16,0-8.65,1.42-13.21,4.16l-3.91-7.48
		c6.4-3.57,11.39-5.48,19.53-5.48c11.64,0,18.21,5.9,18.29,15.8l0.08,29.09h-10.63V105.59z M765.74,90.13v-3.99h-11.22
		c-5.73,0-8.39,1.58-8.39,5.48c0,3.74,2.99,6.16,7.89,6.16C760.26,97.78,765.16,94.45,765.74,90.13z"/>
	<path class="st0" d="M798.16,43.92v61.66h-10.8V43.92H798.16z"/>
	<path class="st0" d="M871.95,93.3h-28.43l-5.15,12.3h-11.55l25.52-58.17h11.55l25.18,58.17H877.1L871.95,93.3z M867.96,83.74
		l-10.14-24.43l-10.3,24.43H867.96z"/>
	<path class="st0" d="M905.27,48.41c0,3.49-2.41,5.98-5.81,5.98s-5.81-2.49-5.81-5.98c0-3.49,2.41-5.98,5.81-5.98
		C902.86,42.43,905.27,44.93,905.27,48.41z M904.86,61.13v44.46h-10.8V61.13H904.86z"/>
	<path class="st0" d="M959.45,43.92v61.66h-10.8v-7.15c-3.16,4.9-8.31,7.64-14.96,7.64c-12.71,0-21.2-9.31-21.2-22.85
		c0-13.47,8.48-22.52,20.95-22.52c6.82,0,11.97,2.74,15.21,7.73V43.91h10.8V43.92z M948.65,83.49c0-7.97-5.15-13.55-12.63-13.55
		c-7.4,0-12.55,5.65-12.63,13.55c0.08,7.98,5.15,13.55,12.63,13.55C943.5,97.03,948.65,91.47,948.65,83.49z"/>
	<path class="st0" d="M1041.23,61.96c0,6.4-3.83,11.31-10.14,12.88c7.73,1.42,12.38,6.98,12.38,14.71c0,9.97-8.22,16.04-21.53,16.04
		h-26.59V47.42h25.85C1033.58,47.42,1041.23,52.99,1041.23,61.96z M1029.85,63.95c0-4.41-3.49-6.98-9.23-6.9h-14.13v14.13h14.13
		C1026.35,71.18,1029.85,68.52,1029.85,63.95z M1031.92,88.13c0-4.74-4.24-7.64-11.31-7.56h-14.13v15.37h14.13
		C1027.69,96.04,1031.92,93.12,1031.92,88.13z"/>
	<path class="st0" d="M1095,83.31c0,13.55-9.48,22.68-23.36,22.68c-14.05,0-23.52-9.14-23.52-22.68c0-13.47,9.48-22.52,23.52-22.52
		C1085.53,60.79,1095,69.86,1095,83.31z M1059.02,83.49c0,7.98,5.15,13.47,12.63,13.47c7.31,0,12.47-5.48,12.47-13.47
		c0-7.97-5.15-13.47-12.47-13.47C1064.17,70.02,1059.02,75.5,1059.02,83.49z"/>
	<path class="st0" d="M1128.99,105.59v-5.4c-3.07,3.91-8.06,5.9-14.38,5.9c-9.56,0-15.54-5.9-15.54-13.8
		c0-8.22,6.07-13.29,16.87-13.39h12.96v-1.16c0-5.15-3.4-8.22-10.05-8.22c-4.16,0-8.65,1.42-13.21,4.16l-3.91-7.48
		c6.4-3.57,11.39-5.48,19.53-5.48c11.64,0,18.21,5.9,18.29,15.8l0.08,29.09h-10.63V105.59z M1128.91,90.13v-3.99h-11.22
		c-5.73,0-8.39,1.58-8.39,5.48c0,3.74,2.99,6.16,7.89,6.16C1123.42,97.78,1128.32,94.45,1128.91,90.13z"/>
	<path class="st0" d="M1176.02,60.71v10.47c-9.39-0.58-15.12,4.9-15.12,12.96v21.44h-10.8V61.13h10.8v8.56
		C1163.89,63.87,1169.13,60.79,1176.02,60.71z"/>
	<path class="st0" d="M1224.81,43.92v61.66h-10.8v-7.15c-3.16,4.9-8.31,7.64-14.96,7.64c-12.71,0-21.2-9.31-21.2-22.85
		c0-13.47,8.47-22.52,20.95-22.52c6.82,0,11.97,2.74,15.21,7.73V43.91h10.8V43.92z M1214.01,83.49c0-7.97-5.15-13.55-12.63-13.55
		c-7.4,0-12.55,5.65-12.63,13.55c0.08,7.98,5.15,13.55,12.63,13.55C1208.86,97.03,1214.01,91.47,1214.01,83.49z"/>
</g>
<path class="st0" d="M43.2,107.32l2.24,13.05H13.47V150H0.42v-36.15c0-3.6,2.92-6.53,6.53-6.53H43.2z M59.48,86.52H14.91l7.47-29.51
	l38.35,3.96l-2.3-13.37l-32.82-3.38l0,0l-13.12-1.36L0.2,91.44c-0.49,1.95-0.06,4.03,1.17,5.61c1.24,1.59,3.13,2.52,5.15,2.52h47.47
	l8.8,50.43h13.25L65.91,91.93C65.37,88.81,62.66,86.52,59.48,86.52z M21.11,34.96c9.01,2.35,18.32-3.45,20.8-12.96
	S39.09,2.87,30.09,0.52C21.09-1.83,11.78,3.98,9.3,13.49C6.81,22.99,12.1,32.61,21.11,34.96z M133.84,67.14H49.2v13.05h35.79V150
	h13.05V80.19h35.8V67.14z M181.66,97.06c1.24-1.59,1.67-3.66,1.17-5.61l-12.29-48.58l-13.12,1.36l0,0l-32.82,3.38l-2.3,13.37
	l38.35-3.96l7.47,29.51h-44.57c-3.17,0-5.88,2.28-6.43,5.4L106.99,150h13.25l8.8-50.43h47.47
	C178.53,99.57,180.42,98.65,181.66,97.06z M161.94,34.96c9.01-2.35,14.29-11.96,11.81-21.48c-2.48-9.51-11.79-15.31-20.8-12.96
	c-9.01,2.35-14.29,11.96-11.81,21.48C143.62,31.5,152.93,37.31,161.94,34.96z M176.1,107.32h-36.25l-2.24,13.05h31.96V150h13.05
	v-36.15C182.62,110.25,179.7,107.32,176.1,107.32z"/>
</svg>
